<svg width="46" height="58" viewBox="0 0 46 58" fill="none" xmlns="http://www.w3.org/2000/svg">
<g opacity="0.995">
<g opacity="0.995">
<g opacity="0.995">
<g opacity="0.995">
<path opacity="0.995" d="M28.1046 24.4287H16.7043V17.4156C16.7043 13.549 19.8729 10.4029 23.7675 10.4029H28.1046C31.9987 10.4029 35.1673 13.549 35.1673 17.4156C35.1673 21.2826 31.9987 24.4287 28.1046 24.4287ZM28.9576 0.434754H22.9145C13.4689 0.434754 5.8114 8.03694 5.8114 17.4156V34.3973H28.9576C38.4027 34.3973 46.0597 26.7947 46.0597 17.4156C46.0597 8.03694 38.4027 0.434754 28.9576 0.434754" fill="#341195"/>
</g>
<g opacity="0.995">
<path opacity="0.995" d="M16.0464 50.0022V37.7893H8.30639C4.03233 37.7893 0.566895 41.2297 0.566895 45.4739V50.0022C0.566895 54.2465 4.03233 57.6873 8.30639 57.6873C12.5809 57.6873 16.0464 54.2465 16.0464 50.0022Z" fill="#341195"/>
</g>
</g>
</g>
</g>
</svg>
